# AST/ASF file generated using VICON BodyLanguage
# -----------------------------------------------
:version 1.10
:name VICON
:units
  mass 1.0
  length 0.45
  angle deg
:documentation
   .ast/.asf automatically generated from VICON data using
   VICON BodyBuilder and BodyLanguage model FoxedUp or BRILLIANT.MOD
:root
   order TX TY TZ RX RY RZ
   axis XYZ
   position 0 0 0  
   orientation 0 0 0 
:bonedata
  begin
     id 1 
     name lhipjoint
     direction 0.621563 -0.714088 0.322083 
     length 2.21591 
     axis 0 0 0  XYZ
  end
  begin
     id 2 
     name lfemur
     direction 0.34202 -0.939693 0  
     length 6.84027  
     axis 0 0 20  XYZ
    dof rx ry rz
    limits (-160.0 20.0)
           (-70.0 70.0)
           (-60.0 70.0)
  end
  begin
     id 3 
     name ltibia
     direction 0.34202 -0.939693 0   
     length 6.74005   
     axis 0 0 20   XYZ
    dof rx
    limits (-10.0 170.0)
  end
  begin
     id 4 
     name lfoot
     direction 0.0348332 -0.0960526 0.994767   
     length 1.54672   
     axis -90 7.62852e-016 20   XYZ
    dof rx rz
    limits (-45.0 90.0)
           (-70.0 20.0)
  end
  begin
     id 5 
     name ltoes
     direction 1.53538e-011 -4.22089e-011 1   
     length 0.792077   
     axis -90 7.62852e-016 20   XYZ
    dof rx
    limits (-90.0 20.0)
  end
  begin
     id 6 
     name rhipjoint
     direction -0.648389 -0.693984 0.313015   
     length 2.2801  
     axis 0 0 0  XYZ 
  end
  begin
     id 7 
     name rfemur
     direction -0.34202 -0.939693 0   
     length 6.62341   
     axis 0 0 -20   XYZ
    dof rx ry rz
    limits (-160.0 20.0)
           (-70.0 70.0)
           (-70.0 60.0)
  end
  begin
     id 8 
     name rtibia
     direction -0.34202 -0.939693 0   
     length 6.63811   
     axis 0 0 -20   XYZ
    dof rx
    limits (-10.0 170.0)
 end
 begin
     id 9 
     name rfoot
     direction -0.0578404 -0.158915 0.985596   
     length 1.64992  
     axis -90 -7.62852e-016 -20   XYZ
    dof rx rz
    limits (-45.0 90.0)
           (-20.0 70.0)
  end
  begin
     id 10 
     name rtoes
     direction -1.53571e-011 -4.21911e-011 1   
     length 0.839909   
     axis -90 -7.62852e-016 -20   XYZ
    dof rx
    limits (-90.0 20.0)
  end
  begin
     id 11 
     name lowerback
     direction 0.000554472 0.999997 -0.00226605   
     length 1.81878   
     axis 0 0 0   XYZ
    dof rx ry rz
    limits (-20.0 45.0)
           (-30.0 30.0)
           (-30.0 30.0)
  end
  begin
     id 12 
     name upperback
     direction 0.00177008 0.999761 -0.021771   
     length 1.81977   
     axis 0 0 0   XYZ
    dof rx ry rz
    limits (-20.0 45.0)
           (-30.0 30.0)
           (-30.0 30.0)
  end
  begin
     id 13 
     name thorax
     direction 0.00134147 0.999799 -0.0200243   
     length 1.81422   
     axis 0 0 0   XYZ
    dof rx ry rz
    limits (-20.0 45.0)
           (-30.0 30.0)
           (-30.0 30.0)
  end
  begin
     id 14 
     name lowerneck
     direction -0.0819714 0.987506 0.134583   
     length 1.68295   
     axis 0 0 0   XYZ
    dof rx ry rz
    limits (-20.0 45.0)
           (-30.0 30.0)
           (-30.0 30.0)
  end
  begin
     id 15 
     name upperneck
     direction 0.0867129 0.969666 -0.228538   
     length 1.71188   
     axis 0 0 0   XYZ
    dof rx ry rz
    limits (-20.0 45.0)
           (-30.0 30.0)
           (-30.0 30.0)
  end
  begin
     id 16
     name head
     direction 0.023699 0.995021 -0.0968101  
     length 1.73365  
     axis 0 0 0   XYZ
    dof rx ry rz
    limits (-20.0 45.0)
           (-30.0 30.0)
           (-30.0 30.0)
  end
  begin
     id 17 
     name lclavicle
     direction 0.912847 0.398248 0.090054  
     length 3.56518  
     axis 0 0 0   XYZ
    dof ry rz
    limits (-20.0 10.0)
           (0.0 20.0)
  end
  begin
     id 18 
     name lhumerus
     direction 1 -4.48961e-011 -4.05442e-028   
     length 4.05444   
     axis 180 -30 -90   XYZ
    dof rx ry rz
    limits (-60.0 90.0)
           (-90.0 90.0)
           (-90.0 90.0)
  end
  begin
     id 19
     name lradius
     direction 1 -4.4897e-011 1.54979e-027   
     length 3.21205   
     axis 180 -30 -90   XYZ
    dof rx
    limits (-10.0 170.0)
  end
  begin
     id 20
     name lwrist
     direction 1 -4.48979e-011 1.55564e-027   
     length 1.60602   
     axis -1.61768e-015 90 90   XYZ
    dof ry
    limits (-180.0 0.0)
 end
  begin
     id 21 
     name lhand
     direction 1 -4.48877e-011 3.11128e-027   
     length 0.707407   
     axis -1.98526e-015 90 90   XYZ
    dof rx rz
    limits (-90.0 90.0)
           (-45.0 45.0)
  end
  begin
     id 22 
     name lfingers
     direction 1 -4.49016e-011 6.22255e-027   
     length 0.57033   
     axis -3.97052e-015 90 90   XYZ
    dof rx
    limits (0.0 90.0)
  end
  begin
     id 23
     name lthumb
     direction 0.707107 -6.35011e-011 0.707107   
     length 0.818883   
     axis -90 45 2.85299e-015   XYZ
    dof rx rz
    limits (-45.0 45.0)
           (-45.0 45.0)
  end
  begin
     id 24 
     name rclavicle
     direction -0.930415 0.353791 0.0957082   
     length 3.54688  
     axis 0 0 0   XYZ 
    dof ry rz
    limits (-10.0 20.0)
           (-20.0 0.0)
  end
  begin
     id 25 
     name rhumerus
     direction -1 -4.48952e-011 -8.4136e-018  
     length 3.74048   
     axis 180 30 90   XYZ
    dof rx ry rz
    limits (-90.0 60.0)
           (-90.0 90.0)
           (-90.0 90.0)
  end
  begin
     id 26 
     name rradius
     direction -1 -4.48964e-011 1.66692e-027   
     length 3.1603   
     axis 180 30 90   XYZ
    dof rx
    limits (-10.0 170.0)
  end
  begin
     id 27 
     name rwrist
     direction -1 -4.49008e-011 1.55564e-027   
     length 1.58015   
     axis -1.61768e-015 -90 -90   XYZ
    dof ry
    limits (-180.0 0.0)
  end
  begin
     id 28
     name rhand
     direction -1 -4.48922e-011 3.11128e-027   
     length 0.717028   
     axis -1.98526e-015 -90 -90   XYZ
    dof rx rz
    limits (-90.0 90.0)
           (-45.0 45.0)
  end
  begin
     id 29
     name rfingers
     direction -1 -4.49002e-011 6.22255e-027   
     length 0.578086   
     axis -3.97052e-015 -90 -90   XYZ
    dof rx
    limits (0.0 90.0)
  end
  begin
     id 30
     name rthumb
     direction -0.707107 -6.34899e-011 0.707107   
     length 0.83002   
     axis -90 -45 -2.85299e-015   XYZ
    dof rx rz
    limits (-45.0 45.0)
           (-45.0 45.0)
  end
:hierarchy
  begin
    root lhipjoint rhipjoint lowerback
    lhipjoint lfemur
    lfemur ltibia
    ltibia lfoot
    lfoot ltoes
    rhipjoint rfemur
    rfemur rtibia
    rtibia rfoot
    rfoot rtoes
    lowerback upperback
    upperback thorax
    thorax lowerneck lclavicle rclavicle
    lowerneck upperneck
    upperneck head
    lclavicle lhumerus
    lhumerus lradius
    lradius lwrist
    lwrist lhand lthumb
    lhand lfingers
    rclavicle rhumerus
    rhumerus rradius
    rradius rwrist
    rwrist rhand rthumb
    rhand rfingers
  end

#!OML:ASF G:\acrobat\cartwheel_test\acrobat_wednesday\Session 1\acrobatwednesday.ASF
:FULLY-SPECIFIED
:DEGREES
198
root -6.23597 15.9955 -7.73337 -530.842 102 -198.637
lowerback 23.8107 -0.530617 -0.212907
upperback 8.61344 -0.144288 0.605076
thorax -3.79315 0.135505 0.797073
lowerneck -27.8449 -2.16689 -4.52052
upperneck 30.8974 -0.975227 0.739331
head 15.616 -0.755556 0.900546
rclavicle 1.47101e-014 -1.19271e-015
rhumerus -21.6227 -7.20804 -66.7962
rradius 30.1298
rwrist 11.6611
rhand -26.7932 -352.397
rfingers 7.12502
rthumb -0.220341 -742.377
lclavicle 1.47101e-014 -1.19271e-015
lhumerus -173.765 185.344 -98.0899
lradius 25.3694
lwrist 25.2454
lhand -27.1566 -385.341
lfingers 7.12502
lthumb -0.571359 4.63818
rfemur -69.6199 -8.25309 9.70799
rtibia 56.9094
rfoot 345.468 -11.5672
rtoes 10.3704
lfemur -65.0276 1.89117 -19.6717
ltibia 77.6366
lfoot -0.50328 -2.67259
ltoes -36.6449
199
root -6.54906 16.0058 -7.96795 -531.997 103.136 -197.354
lowerback 23.0925 -0.558015 -0.53879
upperback 8.2945 -0.304352 0.402381
thorax -3.78035 0.0418279 0.80433
lowerneck -27.4021 -1.79776 -4.5384
upperneck 31.4336 -0.389732 0.664655
head 15.7533 -0.526956 1.0022
rclavicle -2.06736e-014 -2.3059e-014
rhumerus -23.4103 -9.77685 -66.2709
rradius 28.5796
rwrist 13.3907
rhand -27.4369 -353.175
rfingers 7.12502
rthumb -0.842064 -743.153
lclavicle -2.06736e-014 -2.3059e-014
lhumerus -175.085 182.857 -98.3127
lradius 25.0169
lwrist 24.8851
lhand -27.8285 -385.63
lfingers 7.12502
lthumb -1.22027 4.34599
rfemur -68.6448 -9.17503 9.88979
rtibia 65.3606
rfoot 344.436 -10.2594
rtoes 9.90009
lfemur -58.3411 0.643438 -17.2683
ltibia 82.4051
lfoot -0.674482 -4.78872
ltoes -43.9757
200
root -6.82812 15.9912 -8.19442 -533.864 104.205 -197.08
lowerback 21.9394 -0.709779 -0.66462
upperback 7.96712 -0.575254 0.322986
thorax -3.55251 -0.109123 0.852377
lowerneck -26.9676 -1.26683 -4.52353
upperneck 31.7866 0.425088 0.550746
head 15.798 -0.206351 1.12665
rclavicle 1.03368e-014 -8.74653e-015
rhumerus -24.7614 -12.7147 -65.4511
rradius 26.9516
rwrist 15.4246
rhand -27.924 -353.12
rfingers 7.12502
rthumb -1.31248 -743.096
lclavicle 1.03368e-014 -8.74653e-015
lhumerus -176.715 180.195 -98.6515
lradius 24.8928
lwrist 24.4983
lhand -28.2966 -386.03
lfingers 7.12502
lthumb -1.67233 3.94341
rfemur -67.3695 -10.0572 10.0336
rtibia 73.4394
rfoot 343.013 -9.09145
rtoes 8.24813
lfemur -50.7029 -0.854338 -15.3017
ltibia 84.4761
lfoot 0.235566 -8.13683
ltoes -49.2876
201
root -7.07682 15.9589 -8.39769 -535.445 105.437 -196.639
lowerback 20.5424 -0.649616 -0.863509
upperback 7.65515 -0.589084 0.148039
thorax -3.1806 -0.136248 0.772546
lowerneck -26.5602 -0.899094 -4.25013
upperneck 32.218 0.856879 0.53017
head 15.8986 0.00311767 1.16701
rclavicle -3.65764e-014 8.74653e-015
rhumerus -26.576 -16.1231 -64.3013
rradius 25.8382
rwrist 17.3478
rhand -28.1255 -352.635
rfingers 7.12502
rthumb -1.5071 -742.609
lclavicle -3.65764e-014 8.74653e-015
lhumerus -178.223 178.302 -99.2381
lradius 24.6751
lwrist 24.2537
lhand -28.6356 -386.289
lfingers 7.12502
lthumb -1.99976 3.68147
rfemur -65.6883 -10.6179 9.9194
rtibia 82.717
rfoot 313.689 13.5147
rtoes 8.32673
lfemur -41.8704 -2.43746 -13.9842
ltibia 83.3804
lfoot 1.01175 -8.74193
ltoes -51.7519
202
root -7.30329 15.9023 -8.59385 -535.525 107.172 -195.084
lowerback 18.8312 -0.465347 -1.47419
upperback 7.13729 -0.520729 -0.0454612
thorax -2.85237 -0.133904 0.889049
lowerneck -26.223 -0.546418 -4.15502
upperneck 32.9654 1.41118 0.43596
head 16.1695 0.225904 1.23678
rclavicle -2.22639e-014 1.35174e-014
rhumerus -28.7251 -17.9348 -62.9192
rradius 25.4216
rwrist 18.085
rhand -28.136 -352.358
rfingers 7.12502
rthumb -1.51728 -742.332
lclavicle -2.22639e-014 1.35174e-014
lhumerus -179.871 176.258 -99.8555
lradius 24.3041
lwrist 23.7437
lhand -28.8225 -386.808
lfingers 7.12502
lthumb -2.18026 3.16086
rfemur -63.9579 -10.6666 9.30203
rtibia 89.2719
rfoot 279.834 32.9991
rtoes 8.82212
lfemur -32.4197 -4.27954 -13.6043
ltibia 76.8342
lfoot 1.88274 -8.08296
ltoes -51.5598
203
root -7.50732 15.8182 -8.78687 -534.456 109.198 -192.775
lowerback 16.6216 -0.0925544 -2.27254
upperback 6.5643 -0.205854 -0.337249
thorax -2.31222 -0.0138875 0.964055
lowerneck -26.2268 -0.257297 -3.7691
upperneck 33.8452 1.80615 0.24197
head 16.6019 0.400589 1.18456
rclavicle -3.73715e-014 1.82882e-014
rhumerus -30.9216 -19.8194 -61.2831
rradius 25.048
rwrist 18.8293
rhand -28.0801 -351.731
rfingers 7.12502
rthumb -1.46324 -741.706
lclavicle -3.73715e-014 1.82882e-014
lhumerus -181.743 175.303 -100.549
lradius 24.434
lwrist 23.5272
lhand -29.3711 -386.899
lfingers 7.12502
lthumb -2.7101 3.06304
rfemur -62.0022 -10.4211 8.21233
rtibia 88.5485
rfoot 235.676 40.4029
rtoes 9.70043
lfemur -22.8694 -6.5103 -14.4801
ltibia 65.3482
lfoot 3.61663 -8.14583
ltoes -51.8443
204
root -7.70959 15.705 -8.98417 -532.847 110.994 -190.704
lowerback 13.8678 0.119443 -2.98763
upperback 5.68295 -0.0381376 -0.441566
thorax -1.78182 0.0308553 1.2279
lowerneck -26.3007 0.0439548 -3.60998
upperneck 34.8305 2.36203 0.0149924
head 17.1178 0.602166 1.1945
rclavicle 9.02482e-014 -2.8625e-014
rhumerus -33.0602 -20.5903 -59.5376
rradius 24.9381
rwrist 18.9937
rhand -27.8043 -351.613
rfingers 7.12502
rthumb -1.19694 -741.589
lclavicle 9.02482e-014 -2.8625e-014
lhumerus -183.855 173.929 -100.897
lradius 24.5755
lwrist 22.9358
lhand -29.9516 -386.838
lfingers 7.12502
lthumb -3.27072 3.11708
rfemur -60.2366 -10.579 7.17664
rtibia 82.0495
rfoot 194.351 30.7315
rtoes 11.8405
lfemur -14.3761 -9.44097 -16.2683
ltibia 53.0462
lfoot 1.06359 -3.21743
ltoes -56.6976
205
root -7.94493 15.5676 -9.19248 -531.269 112.18 -189.632
lowerback 10.9716 0.0953789 -3.19157
upperback 4.41795 -0.0858862 -0.31758
thorax -1.53599 -0.0186087 1.47604
lowerneck -26.4824 0.302765 -3.60413
upperneck 35.5919 2.89246 -0.143405
head 17.5576 0.780349 1.25498
rclavicle -2.5842e-014 -1.59028e-014
rhumerus -35.3824 -19.3606 -58.2326
rradius 25.7779
rwrist 17.7227
rhand -27.6629 -352.833
rfingers 7.12502
rthumb -1.06037 -742.81
lclavicle -2.5842e-014 -1.59028e-014
lhumerus -185.662 172.334 -100.978
lradius 24.3752
lwrist 22.1006
lhand -30.0515 -387.048
lfingers 7.12502
lthumb -3.36716 2.90515
rfemur -58.9106 -11.4104 6.76019
rtibia 75.4757
rfoot 162.677 12.8538
rtoes 13.2783
lfemur -10.1881 -9.44338 -17.7523
ltibia 46.5861
lfoot -8.21313 12.6126
ltoes -52.0292
206
root -8.22722 15.4236 -9.39609 -529.709 112.473 -188.78
lowerback 8.76638 -0.0430709 -3.29207
upperback 3.0137 -0.273532 -0.0816258
thorax -1.77321 -0.117614 1.79311
lowerneck -26.4099 0.347608 -3.41941
upperneck 36.0287 3.01469 -0.388524
head 17.7851 0.815495 1.14662
rclavicle -6.20208e-014 2.38542e-014
rhumerus -37.8429 -18.1386 -57.0687
rradius 26.8678
rwrist 16.5491
rhand -27.826 -353.839
rfingers 7.12502
rthumb -1.21784 -743.815
lclavicle -6.20208e-014 2.38542e-014
lhumerus -187.177 171.66 -100.833
lradius 24.3396
lwrist 21.6882
lhand -30.0297 -387.184
lfingers 7.12502
lthumb -3.34609 2.76969
rfemur -57.0799 -12.8492 6.82998
rtibia 71.6623
rfoot 162.72 12.7255
rtoes 13.4389
lfemur -9.72595 -9.02971 -18.8384
ltibia 43.5602
lfoot -26.3933 23.513
ltoes -45.2246
207
root -8.55188 15.3027 -9.57651 -527.082 111.933 -186.645
lowerback 7.43956 -0.30644 -4.15858
upperback 1.63945 -0.695545 0.0528936
thorax -2.42337 -0.309157 2.45606
lowerneck -25.235 0.64673 -2.891
upperneck 35.187 3.2602 -0.780208
head 17.0624 0.960951 0.90652
rclavicle -6.24184e-014 2.38542e-014
rhumerus -40.0825 -18.117 -56.0234
rradius 27.4127
rwrist 16.3052
rhand -28.5571 -354.256
rfingers 7.12502
rthumb -1.92398 -744.227
lclavicle -6.24184e-014 2.38542e-014
lhumerus -188.552 171.915 -100.607
lradius 24.8375
lwrist 21.9616
lhand -30.4989 -386.81
lfingers 7.12502
lthumb -3.79921 3.13601
rfemur -54.3806 -14.9264 6.85172
rtibia 69.2091
rfoot 162.279 12.1693
rtoes 13.2878
lfemur -10.4273 -8.38466 -19.7129
ltibia 41.3137
lfoot -3.39004 26.4556
ltoes -43.6034
208
root -8.8982 15.2235 -9.73963 -522.851 111.004 -182.984
lowerback 6.27848 -0.652578 -5.51867
upperback 0.564079 -1.23962 -0.0801919
thorax -2.82343 -0.5453 3.1216
lowerneck -24.4941 0.482733 -3.02328
upperneck 34.3376 2.7435 -0.231525
head 16.4378 0.838463 1.04239
rclavicle 9.93923e-014 -5.56597e-015
rhumerus -41.6398 -20.1868 -54.9055
rradius 26.9005
rwrist 17.8785
rhand -29.6869 -355.126
rfingers 7.12502
rthumb -3.01514 -745.084
lclavicle 9.93923e-014 -5.56597e-015
lhumerus -189.42 172.636 -100.396
lradius 25.702
lwrist 22.6126
lhand -31.0714 -386.169
lfingers 7.12502
lthumb -4.35211 3.76598
rfemur -51.2508 -17.1882 6.63099
rtibia 68.5003
rfoot 162.24 12.9625
rtoes 13.6174
lfemur -12.6066 -7.77577 -20.4913
ltibia 40.7074
lfoot 11.4594 17.4715
ltoes -12.9552
209
root -9.23827 15.2066 -9.88741 -520.232 110.402 -180.409
lowerback 5.65972 -0.73719 -6.42423
upperback 0.236959 -1.38599 -0.172126
thorax -2.78399 -0.602291 3.53701
lowerneck -25.3498 0.200284 -2.92482
upperneck 34.1396 2.21009 -0.0869665
head 16.5472 0.644613 0.981148
rclavicle -2.56432e-014 3.10104e-014
rhumerus -42.5766 -24.6012 -53.1375
rradius 25.43
rwrist 21.5237
rhand -30.1966 -356.262
rfingers 7.12502
rthumb -3.50729 -746.213
lclavicle -2.56432e-014 3.10104e-014
lhumerus -189.399 173.147 -99.8761
lradius 26.3711
lwrist 22.9698
lhand -31.3747 -385.553
lfingers 7.12502
lthumb -4.64495 4.37654
rfemur -46.8667 -18.1491 6.96656
rtibia 69.8235
rfoot 162.254 13.3369
rtoes 12.1549
lfemur -16.1187 -7.62801 -20.9424
ltibia 43.4802
lfoot 4.1291 0.827948
ltoes 49.0019
210
root -9.53727 15.2585 -10.0171 -521.708 109.692 -180.6
lowerback 6.26081 -0.696946 -6.23439
upperback 0.596723 -1.34295 -0.0335424
thorax -2.75254 -0.590335 3.57969
lowerneck -25.6969 -0.221779 -3.31591
upperneck 33.5447 1.57369 0.261343
head 16.3346 0.384437 1.05965
rclavicle 2.26615e-014 -3.65764e-014
rhumerus -43.8 -28.9875 -51.433
rradius 23.9593
rwrist 25.1204
rhand -30.4982 -356.826
rfingers 7.12502
rthumb -3.7986 -746.772
lclavicle 2.26615e-014 -3.65764e-014
lhumerus -189.069 172.915 -99.2194
lradius 26.4446
lwrist 22.8082
lhand -31.6702 -384.969
lfingers 7.12502
lthumb -4.93028 4.95346
rfemur -39.6807 -18.4303 8.05948
rtibia 73.7277
rfoot 161.764 12.6455
rtoes 7.81912
lfemur -17.3071 -7.70589 -20.5693
ltibia 45.3742
lfoot -1.16848 -1.17233
ltoes 52.363
211
root -9.79444 15.3457 -10.131 -525.315 109.257 -182.799
lowerback 6.67705 -0.537307 -5.19438
upperback 1.07352 -1.06177 0.0669171
thorax -2.5376 -0.475009 3.07901
lowerneck -25.7562 -0.561433 -3.71351
upperneck 33.262 1.03849 0.747233
head 16.2146 0.18852 1.22342
rclavicle 3.39922e-014 -1.43125e-014
rhumerus -45.5144 -32.4073 -50.2889
rradius 22.511
rwrist 27.7972
rhand -30.9303 -356.479
rfingers 7.12502
rthumb -4.21584 -746.417
lclavicle 3.39922e-014 -1.43125e-014
lhumerus -188.712 172.263 -98.6768
lradius 25.8895
lwrist 22.1168
lhand -31.7196 -384.611
lfingers 7.12502
lthumb -4.97801 5.31009
rfemur -31.5972 -18.6661 9.51812
rtibia 79.8329
rfoot 160.287 10.8535
rtoes 9.35213
lfemur -17.511 -7.57851 -19.7268
ltibia 46.3167
lfoot -5.24415 -3.85086
ltoes 48.0629
212
root -10.0299 15.4634 -10.2214 -528.417 109.468 -184.963
lowerback 6.56738 -0.196384 -4.23509
upperback 1.2937 -0.530377 -0.0127668
thorax -2.307 -0.226919 2.40971
lowerneck -25.4083 -0.935728 -4.10194
upperneck 33.3293 0.478405 1.20165
head 16.1823 -0.0178723 1.37164
rclavicle 4.17448e-015 -3.97569e-015
rhumerus -47.2297 -35.0519 -49.6483
rradius 20.7361
rwrist 30.5146
rhand -31.1551 -355.501
rfingers 7.12502
rthumb -4.43289 -745.435
lclavicle 4.17448e-015 -3.97569e-015
lhumerus -188.83 171.975 -98.3884
lradius 25.3655
lwrist 21.5312
lhand -31.1528 -384.679
lfingers 7.12502
lthumb -4.43073 5.255
rfemur -24.7575 -19.7584 10.669
rtibia 87.1456
rfoot 118.446 -16.8111
rtoes 14.6734
lfemur -17.5402 -7.25465 -18.8809
ltibia 46.2171
lfoot -8.69969 -4.81798
ltoes 47.504
